<?xml version="1.0" encoding="utf-8"?>
<!-- Generator: Adobe Illustrator 19.0.1, SVG Export Plug-In . SVG Version: 6.00 Build 0)  -->
<svg version="1.1" id="Layer_1" xmlns="http://www.w3.org/2000/svg" xmlns:xlink="http://www.w3.org/1999/xlink" x="0px" y="0px"
	 viewBox="0 0 393.7 120.2" style="enable-background:new 0 0 393.7 120.2;" xml:space="preserve">
<style type="text/css">
	.st0{fill-rule:evenodd;clip-rule:evenodd;fill:#FFFFFF;}
	.st1{fill:#FFFFFF;}
</style>
<g>
	<g>
		<g>
			<path class="st0" d="M112.2,0h-3H96.5c-3.2,0-5.2,1.6-5.8,4.7c-0.6,3.2,1.1,6.6,5.2,10.4c2.5,2,2.1,2.9-1.3,2.8H0v7.6h102.9
				c3.7-0.6,5.5-2.5,5.6-5.6c0.1-3.2-1.8-6.4-5.6-9.7c-2.1-1.8-1.7-2.6,1.3-2.5h5h3h5v17.9h8.3V7.6h8.1V0H112.2L112.2,0z"/>
			<path class="st0" d="M132,25.5L140.4,0h12.6l8.5,25.5H152l-1.6-4.6h-7.6l-1.6,4.6H132L132,25.5z M146.8,5.7l-3.7,10.1h7
				L146.8,5.7L146.8,5.7z"/>
			<path class="st0" d="M161.2,25.5V0h16.6c2,0.2,3.7,0.7,5,1.6c1.3,0.9,2.3,2.1,2.9,3.6c0.5,2.3,0.5,4,0.1,5.2
				c-0.4,1.2-1.2,2.2-2.2,3.1c-1.1,0.8-2.6,1.5-4.6,1.9l1.9,2.4h12.4v7.6h-14.9l-8.1-8.4v8.4H161.2L161.2,25.5z M170.4,6.4v4.7h6.4
				c0.3,0,0.7-0.1,1.1-0.4c0.4-0.3,0.6-0.9,0.6-1.9c-0.1-1-0.3-1.6-0.7-1.9c-0.4-0.3-0.8-0.5-1-0.5H170.4L170.4,6.4z"/>
		</g>
		<g>
			<polygon class="st0" points="217.8,14.7 215.1,25.5 206.8,25.5 199.1,0 207.3,0 210.8,11 213.9,0 221.5,0 225,11 227.4,0 
				235.7,0 229.3,25.5 221,25.5 217.8,14.7 			"/>
			<path class="st0" d="M231.9,25.5L240.3,0h12.6l8.5,25.5h-9.6l-1.6-4.6h-7.6l-1.6,4.6H231.9L231.9,25.5z M246.6,5.7L243,15.8h7
				L246.6,5.7L246.6,5.7z"/>
			<path class="st0" d="M302.2,7.6l9.5,0V0l-17.2,0c-3.2,0-5.2,1.6-5.8,4.7c-0.6,3.2,1.1,6.6,5.2,10.4c2.5,2,2.1,2.9-1.3,2.8h-11.9
				l-1.9-2.4c2-0.5,3.5-1.1,4.6-1.9c1.1-0.8,1.8-1.8,2.2-3.1c0.4-1.2,0.4-3-0.1-5.2c-0.6-1.5-1.6-2.7-2.9-3.6c-1.3-0.9-3-1.4-5-1.6
				h-16.6v25.5h9.2v-8.4l8.1,8.4h0.3h15.7h6.5c3.7-0.6,5.5-2.5,5.6-5.6c0.1-3.2-1.8-6.4-5.6-9.7C298.8,8.4,299.2,7.5,302.2,7.6
				L302.2,7.6z M277.8,10.7c-0.4,0.3-0.8,0.4-1.1,0.4h-6.4V6.4h6.4c0.3,0,0.6,0.2,1,0.5c0.4,0.3,0.7,1,0.7,1.9
				C278.4,9.8,278.2,10.5,277.8,10.7L277.8,10.7z"/>
		</g>
	</g>
	<g>
		<g>
			<path class="st1" d="M7.8,63c0-9.8,0-11.6-0.1-13.6c-0.1-2.1-0.6-3.1-2.7-3.6c-0.4-0.1-1-0.1-1.6-0.1c-0.6-0.1-1.1-0.1-1.1-0.4
				c0-0.4,0.3-0.5,1-0.5c2.5,0,4.8,0.2,7.1,0.2c1.3,0,14,0,15.5-0.1c1.4-0.1,2.6-0.1,3.1-0.4c0.2-0.1,0.4-0.3,0.6-0.3
				c0.3,0,0.4,0.3,0.4,0.6s-0.3,1.2-0.4,1.9c-0.3,1.8-0.3,2.8-0.4,4.6c0,0.8-0.3,1.3-0.6,1.3c-0.3,0-0.4-0.3-0.4-0.8
				c-0.1-0.9-0.3-2.4-1.2-3.1c-0.8-0.6-1.9-1.1-3.7-1.2c-3.2-0.1-6.4-0.1-9.6-0.2c-0.4,0-0.6,0.2-0.6,0.7v17.4
				c0,0.4,0.1,0.6,0.4,0.6c2.6,0,6.2,0,8.7-0.1c3.3-0.1,4.1-0.1,5-1.2c0.3-0.4,0.4-0.6,0.7-0.6c0.3,0,0.3,0.2,0.3,0.5
				c0,0.4-0.3,1.4-0.5,3.5c-0.2,1.9-0.2,3.4-0.3,4.3c-0.1,0.7-0.1,1.1-0.4,1.1c-0.4,0-0.4-0.4-0.5-1.1c-0.1-1.4-0.3-3.6-3.6-4
				c-1.6-0.2-8.4-0.2-9.5-0.2c-0.3,0-0.4,0.1-0.4,0.6v5.3c0,5.3,0,9.8,0.2,12.7c0.2,2.8,0.9,4.2,2.6,4.4c0.8,0.1,1.9,0.2,2.6,0.3
				c0.6,0.1,0.8,0.2,0.8,0.4c0,0.3-0.3,0.4-1,0.4c-3.5,0-7.4-0.2-7.7-0.2H9.9c-1.3,0.1-4.1,0.2-5.6,0.2c-0.7,0-1-0.1-1-0.5
				c0-0.2,0.1-0.3,0.7-0.4c0.6-0.1,1.2-0.1,1.6-0.3c1.3-0.4,1.8-1.3,1.9-4.1c0.2-2.7,0.3-7.1,0.3-13V63z"/>
			<path class="st1" d="M47.3,73.8c-0.3,0-0.5,0.2-0.6,0.5l-3.8,11.1C42.3,87,42,88.5,42,89.6c0,1.3,1.2,1.8,2.3,1.8
				c0.2,0,0.4,0,0.6,0c0.6,0,0.8,0.1,0.8,0.4c0,0.4-0.6,0.5-1.1,0.5c-1.5,0-4-0.2-4.7-0.2c-0.7,0-4.1,0.2-7.1,0.2
				c-0.8,0-1.2-0.1-1.2-0.5c0-0.3,0.3-0.4,0.9-0.4c0.4,0,1-0.1,1.5-0.1c2.9-0.4,4.1-2.8,5.3-5.9l14.3-39c0.8-2.1,1-2.5,1.4-2.5
				s0.6,0.3,1.4,2.3c0.9,2.4,10.8,28.4,14.6,37.9c2.3,5.6,4.1,6.6,5.4,7c0.9,0.3,1.9,0.4,2.5,0.4c0.4,0,0.7,0.1,0.7,0.4
				c0,0.4-0.6,0.5-1.3,0.5c-0.9,0-5.5,0-9.9-0.1c-1.2-0.1-1.9-0.1-1.9-0.4c0-0.3,0.2-0.4,0.4-0.4c0.4-0.1,0.8-0.7,0.4-1.7l-5.8-15.5
				c-0.1-0.3-0.3-0.4-0.6-0.4H47.3z M60,71.5c0.3,0,0.3-0.2,0.3-0.4l-6-17c-0.3-0.9-0.6-0.9-0.9,0l-5.5,17c-0.1,0.3,0,0.4,0.2,0.4
				H60z"/>
			<path class="st1" d="M87,73.8c0-22.7,0.1-14.5,0.1-26.7c0-2.5,0.2-3.1,0.7-3.1s1.6,1.4,2.2,2c0.9,1.1,10.3,11.2,20,21.6
				c6.2,6.7,13.1,14.3,15.1,16.4L124.3,52c-0.1-4.1-0.5-5.5-2.5-6c-1.1-0.3-2.1-0.3-2.7-0.3c-0.7,0-0.9-0.2-0.9-0.4
				c0-0.4,0.5-0.4,1.3-0.4c2.8,0,5.8,0.2,6.5,0.2s2.8-0.2,5.3-0.2c0.7,0,1.1,0.1,1.1,0.4c0,0.3-0.3,0.4-0.7,0.4
				c-0.5,0.1-0.9,0.1-1.6,0.3c-1.8,0.4-2.2,1.3-2.2,5.7l-0.1,36.7c0,4.1-0.1,4.5-0.6,4.5c-0.5,0-1.3-0.7-4.6-4
				c-0.7-0.6-9.7-9.9-16.4-17c-7.3-7.9-14.4-15.8-16.4-18l0.8,30.1c0.1,5.2,0.8,6.8,2.5,7.3c1.2,0.3,2.6,0.4,3.1,0.4
				c0.3,0,0.5,0.1,0.5,0.4c0,0.4-0.4,0.5-1.1,0.5c-3.6,0-6.1-0.2-6.7-0.2c-0.6,0-3.2,0.2-6,0.2c-0.6,0-1-0.1-1-0.5
				c0-0.3,0.2-0.4,0.5-0.4c0.5,0,1.6-0.1,2.6-0.4c1.6-0.4,1.9-2.3,1.9-8V73.8z"/>
			<path class="st1" d="M206.7,87c0,2.8-0.1,3-0.8,3.4c-4,2.1-9.7,2.8-13.3,2.8c-4.8,0-13.7-0.6-20.7-6.7
				c-3.8-3.3-7.5-10.1-7.5-17.9c0-10.1,4.9-17.2,10.5-20.7c5.7-3.5,11.9-4,16.7-4c4,0,8.4,0.8,9.6,1.1c1.3,0.3,3.5,0.6,5.1,0.6
				c0.6,0.1,0.8,0.3,0.8,0.6c0,0.9-0.4,2.6-0.4,8.9c0,1-0.1,1.3-0.6,1.3c-0.3,0-0.4-0.4-0.4-0.9c-0.1-0.9-0.4-2.6-1.3-4.1
				c-1.6-2.4-6.7-5.1-14.8-5.1c-4,0-8.7,0.4-13.5,4.1c-3.6,2.9-6.2,8.6-6.2,16c0,8.9,4.5,15.3,6.7,17.4c5,4.8,10.7,6.7,16.5,6.7
				c2.3,0,5.5-0.4,7.2-1.3c0.8-0.4,1.3-1.1,1.3-2.2V76.3c0-5.1-0.3-5.8-2.8-6.5c-0.5-0.1-1.6-0.2-2.1-0.2c-0.3,0-0.5-0.1-0.5-0.4
				c0-0.4,0.3-0.5,1-0.5c2.8,0,6.8,0.2,7.1,0.2s4.3-0.2,6.2-0.2c0.7,0,1,0.1,1,0.5c0,0.3-0.3,0.4-0.5,0.4c-0.4,0-0.8,0.1-1.6,0.2
				c-1.7,0.3-2.2,1.4-2.3,3.6c-0.1,2-0.1,3.9-0.1,6.5V87z"/>
			<path class="st1" d="M228.8,71.8c0,9.1,2,13,4.7,15.5c3.1,2.9,5.9,3.5,9.5,3.5c3.8,0,7.6-1.8,9.9-4.5c2.9-3.6,3.6-8.9,3.6-15.4
				V63c0-9.8,0-11.6-0.1-13.6c-0.1-2.1-0.6-3.1-2.7-3.6c-0.5-0.1-1.6-0.2-2.1-0.2c-0.3,0-0.5-0.1-0.5-0.4c0-0.4,0.3-0.5,1-0.5
				c2.8,0,6.3,0.2,6.7,0.2c0.4,0,3.4-0.2,5.3-0.2c0.7,0,1,0.1,1,0.5c0,0.3-0.3,0.4-0.5,0.4c-0.4,0-0.8,0.1-1.6,0.2
				c-1.7,0.4-2.2,1.4-2.3,3.6c-0.1,2-0.1,3.8-0.1,13.6v6.7c0,6.8-0.8,14.3-5.8,18.8c-4.5,4-9.2,4.7-13,4.7c-2.1,0-8.5-0.3-13-4.5
				c-3.1-3-5.5-7.4-5.5-16.5V63c0-9.8,0-11.6-0.1-13.6c-0.1-2.1-0.6-3.1-2.7-3.6c-0.5-0.1-1.6-0.2-2.1-0.2c-0.3,0-0.5-0.1-0.5-0.4
				c0-0.4,0.3-0.5,1-0.5c2.8,0,6.7,0.2,7.2,0.2c0.6,0,4.3-0.2,6.2-0.2c0.7,0,1,0.1,1,0.5c0,0.3-0.3,0.4-0.5,0.4
				c-0.4,0-0.8,0.1-1.6,0.2c-1.7,0.3-2.2,1.4-2.3,3.6c-0.1,2-0.1,3.8-0.1,13.6V71.8z"/>
			<path class="st1" d="M280.4,63c0-9.8,0-11.6-0.1-13.6c-0.1-2.1-0.8-3.2-2.1-3.5c-0.7-0.2-1.5-0.3-1.9-0.3c-0.3,0-0.5-0.1-0.5-0.4
				c0-0.4,0.3-0.5,1-0.5c2.1,0,6,0.2,6.3,0.2c0.3,0,4.3-0.2,6.2-0.2c0.7,0,1,0.1,1,0.5c0,0.3-0.3,0.4-0.5,0.4
				c-0.4,0-0.8,0.1-1.6,0.2c-1.7,0.3-2.2,1.4-2.3,3.6c-0.1,2-0.1,3.8-0.1,13.6v11.1c0,6,0,11,0.3,13.6c0.2,1.8,0.6,3.2,2.5,3.5
				c0.9,0.1,2.2,0.3,2.6,0.3c0.6,0,0.8,0.2,0.8,0.4c0,0.3-0.3,0.5-0.9,0.5c-3.5,0-7.5-0.2-7.8-0.2c-0.3,0-4.3,0.2-6.2,0.2
				c-0.7,0-1-0.1-1-0.5c0-0.2,0.1-0.4,0.7-0.4c0.4,0,1.1-0.1,1.6-0.2c1.3-0.3,1.6-1.7,1.9-3.5c0.3-2.6,0.3-7.6,0.3-13.6V63z"/>
			<path class="st1" d="M309.4,63c0-9.8,0-11.6-0.1-13.6c-0.1-2.1-0.4-3.1-2.5-3.6c-0.5-0.1-1.6-0.2-2.1-0.2c-0.4,0-0.7-0.1-0.7-0.4
				c0-0.4,0.3-0.5,1-0.5c2.8,0,6.8,0.2,7.1,0.2c0.8,0,4.7-0.2,8.5-0.2c6.2,0,17.7-0.6,25.2,7.2c3.1,3.3,6.1,8.5,6.1,16
				c0,7.9-3.3,14-6.8,17.7c-2.7,2.8-8.4,7.2-19,7.2c-2.7,0-6-0.2-8.7-0.4c-2.8-0.2-4.9-0.4-5.2-0.4c-0.1,0-1.2,0-2.5,0.1
				c-1.3,0-2.7,0.1-3.6,0.1c-0.7,0-1-0.1-1-0.5c0-0.2,0.1-0.4,0.6-0.4c0.7-0.1,1.2-0.1,1.8-0.3c1.3-0.3,1.6-1.6,1.8-3.5
				c0.3-2.6,0.3-7.6,0.3-13.6V63z M314.6,69.8c0,6.7,0.1,12.4,0.1,13.6c0.1,1.6,0.2,4.1,0.7,4.8c0.8,1.2,3.3,2.5,10.7,2.5
				c5.8,0,11.3-2.1,15-5.8c3.3-3.2,5-9.2,5-15c0-8-3.5-13.1-6-15.8c-5.9-6.2-13.1-7.1-20.6-7.1c-1.3,0-3.6,0.2-4.1,0.4
				c-0.6,0.3-0.8,0.6-0.8,1.3c-0.1,2.1-0.1,8.6-0.1,13.4V69.8z"/>
			<path class="st1" d="M367.3,63c0-9.8,0-11.6-0.1-13.6c-0.1-2.1-0.6-3.1-2.7-3.6c-0.4-0.1-1.3-0.1-1.8-0.2
				c-0.4-0.1-0.8-0.1-0.8-0.4c0-0.4,0.3-0.5,1-0.5c1.4,0,3.1,0,7.1,0.2c0.4,0,13,0,14.4-0.1c1.4-0.1,2.5-0.2,2.9-0.4
				c0.4-0.2,0.5-0.3,0.7-0.3s0.3,0.3,0.3,0.6c0,0.4-0.4,1.2-0.5,3c-0.1,0.9-0.1,2.1-0.3,3.8c-0.1,0.6-0.3,1.1-0.5,1.1
				c-0.4,0-0.5-0.3-0.5-0.8c0-0.8-0.1-1.6-0.3-2.1c-0.4-1.4-1.8-2.1-4.5-2.3c-1.1-0.1-7.9-0.2-8.6-0.2c-0.3,0-0.4,0.2-0.4,0.6v17.4
				c0,0.4,0.1,0.6,0.4,0.6c0.8,0,8.5,0,10-0.1c1.7-0.1,2.5-0.3,3.1-1.1c0.3-0.4,0.5-0.6,0.8-0.6c0.2,0,0.3,0.1,0.3,0.5
				c0,0.4-0.3,1.4-0.5,3.5c-0.2,1.9-0.2,3.4-0.3,4.3c-0.1,0.6-0.2,0.9-0.4,0.9c-0.4,0-0.4-0.5-0.4-1c0-0.6-0.1-1.2-0.3-1.8
				c-0.3-0.9-1-1.8-3.3-2.1c-1.7-0.2-7.9-0.3-9-0.3c-0.3,0-0.4,0.2-0.4,0.4v5.5c0,2.1-0.1,9.4,0,10.8c0.1,2.6,0.5,4,2.1,4.6
				c1.1,0.4,2.8,0.6,5.2,0.6c1.9,0,4-0.1,5.7-0.6c2-0.6,2.7-1.9,3.2-4.7c0.1-0.7,0.3-0.9,0.6-0.9c0.4,0,0.4,0.5,0.4,0.9
				c0,0.5-0.5,4.8-0.8,6.1c-0.4,1.6-0.9,1.6-3.4,1.6c-4.7,0-6.7-0.1-9.2-0.2c-2.5-0.1-5.4-0.2-7.9-0.2c-1.5,0-3,0.3-4.7,0.2
				c-0.7,0-1-0.1-1-0.5c0-0.2,0.3-0.3,0.7-0.4c0.6-0.1,1-0.1,1.4-0.2c1.3-0.3,2.1-1.2,2.3-5.9c0.1-2.5,0.1-5.7,0.1-11.3V63z"/>
		</g>
	</g>
	<path class="st0" d="M393.7,25.5H310c0,0,1-0.8,1-3.8c0-3-1-3.8-1-3.8h83.7V25.5z"/>
	<rect y="112.6" class="st0" width="393.7" height="7.6"/>
</g>
</svg>
